<svg xmlns="http://www.w3.org/2000/svg" width="143.619" height="39.862" viewBox="0 0 143.62 39.86" xmlns:v="https://vecta.io/nano"><path d="M0 0h143.619v39.862H0zm142.427 1.192H1.192V38.67h141.235zM29.141 23.627a5.908 5.908 0 0 1-7.939 0 5.054 5.054 0 0 1 0-7.443 5.866 5.866 0 0 1 7.939 0 5.024 5.024 0 0 1 0 7.443zm-5.939-1.751a2.776 2.776 0 1 0 3.926-3.926 2.715 2.715 0 0 0-3.911 0 2.784 2.784 0 0 0-.015 3.926zm10.399-.438a3.137 3.137 0 0 0 2.539 1.255c.905 0 1.358-.248 1.358-.73 0-.277-.176-.467-.569-.627a5.78 5.78 0 0 0-.6-.2 32.694 32.694 0 0 1-1.605-.511 3.06 3.06 0 0 1-2.35-2.933 2.647 2.647 0 0 1 1.065-2.248 4.158 4.158 0 0 1 2.583-.8 4.455 4.455 0 0 1 3.765 1.62l-1.824 1.562a2.268 2.268 0 0 0-1.839-.8c-.715 0-1.109.263-1.109.627a.557.557 0 0 0 .409.584 2.993 2.993 0 0 0 .511.175 16.47 16.47 0 0 1 1.795.54c1.751.627 2.466 1.547 2.466 2.933 0 1.97-1.357 3.225-4.058 3.225a5.626 5.626 0 0 1-2.816-.628 4.894 4.894 0 0 1-1.678-1.532zm8.199 3.517V14.783h7.5v2.5h-4.73v1.4h4.407v2.277H44.57v1.547h4.845v2.452zm12.46 0V14.783h3.269a5.2 5.2 0 0 1 3.838 1.4 5.545 5.545 0 0 1 .014 7.385 5.244 5.244 0 0 1-3.838 1.386zm1.138-1.051h2.058c2.743 0 4.189-1.576 4.189-4.028s-1.445-4.042-4.2-4.042h-2.046zm12.434 1.051V14.783h1.138v10.172zm14.919-9.02l-.715.788a4.242 4.242 0 0 0-5.779.146 4.469 4.469 0 0 0 0 6.056 3.99 3.99 0 0 0 2.977 1.2 4.061 4.061 0 0 0 2.788-1.022v-2.627h-3.109v-1.051h4.247v4.072a5.112 5.112 0 0 1-3.926 1.679 5.2 5.2 0 0 1-3.765-1.5 5.409 5.409 0 0 1 0-7.545 5.21 5.21 0 0 1 3.765-1.518 4.979 4.979 0 0 1 3.517 1.322zm5.66 9.02V14.783h1.138v10.172zm8.666 0v-9.121h-2.773v-1.051h6.684v1.051h-2.773v9.121zm20.518 0V14.783h1.138v9.122h4.189v1.051zm-13.964-.084l4.6-10.537 4.612 10.537h-1.241l-1.094-2.51h-4.583l-1.1 2.51zm2.291-2.51h4.583l-2.292-5.37z"/></svg>
