<svg xmlns="http://www.w3.org/2000/svg" viewBox="-2.83 -2.7 137.53 140.66">
  <path fill="#97d700" d="M59.4 6.6 11.6 115.5.2 34.3c-.4-2.5-.2-5.1.4-7.5.7-2.4 1.8-4.7 3.3-6.8 1.5-2 3.4-3.7 5.6-4.9 2.2-1.3 4.6-2.2 7.1-2.5z"/>
  <path fill="#71c5e8" d="M131.9 83.8q-.2 1.8-.7 3.5-.6 1.8-1.4 3.4-.9 1.5-2 2.9L87.3 2.7 105.7.2c.4-.1.9-.1 1.3-.1 2.5-.2 5 .1 7.4.9 2.4.8 4.6 2.1 6.5 3.7 1.9 1.7 3.5 3.7 4.6 5.9 1.2 2.3 1.8 4.7 2 7.2l4.5 62.4q.1 1.8-.1 3.6z"/>
  <path fill="#ff9013" d="m75.1 30.2 33.2 74.2-69.7 29.4q-1.1.5-2.3.8-1.2.3-2.4.5t-2.4.2q-1.3 0-2.5-.1z"/>
</svg>
