<svg xmlns="http://www.w3.org/2000/svg" viewBox="-1.78 -1.66 77.31 86.19">
  <path fill="#17313b" d="M57.676 58.97a23.502 23.502 0 0 1-15.888 5.896c-13.494 0-23.506-9.827-23.506-23.366s9.577-22.93 23.506-22.93a25.44 25.44 0 0 1 16.106 5.678l3.047 2.402L74 13.766l-3.265-3.057a42.312 42.312 0 0 0-28.73-10.7C17.63.009 0 17.479 0 41.282s18.065 41.71 41.788 41.71a41.645 41.645 0 0 0 28.947-10.92L74 69.235 60.724 56.35z"/>
  <path fill="#ff3d2e" d="M41.375 55.5a13.957 13.957 0 0 0 14-14 14 14 0 1 0-14 14z"/>
</svg>
