<svg xmlns="http://www.w3.org/2000/svg" viewBox="-0.72 -0.72 33.38 37.38">
  <g fill="none">
    <path fill="url(#a)" fill-rule="evenodd" d="M0 3a3 3 0 0 1 3-3h26a3 3 0 0 1 3 3v4.286a3 3 0 0 1-3 3H3a3 3 0 0 1-3-3V3zm0 12.857a3 3 0 0 1 3-3h26a3 3 0 0 1 3 3v4.286a3 3 0 0 1-3 3H3a3 3 0 0 1-3-3v-4.286zm3 9.857a3 3 0 0 0-3 3V33a3 3 0 0 0 3 3h12a3 3 0 0 0 3-3v-4.286a3 3 0 0 0-3-3H3z" clip-rule="evenodd"/>
    <defs>
      <linearGradient id="a" x1="0" x2="36" y1="0" y2="36" gradientUnits="userSpaceOnUse">
        <stop stop-color="#EA1330"/>
        <stop offset="1" stop-color="#AF041A"/>
      </linearGradient>
    </defs>
  </g>
</svg>
