<svg xmlns="http://www.w3.org/2000/svg" viewBox="-1.2 -0.7 62.4 37.34">
  <g fill="none">
    <path fill="url(#a)" d="M0 35.498 11.088 7.13A10.423 10.423 0 0 1 20.794.501h6.685L16.392 28.87a10.423 10.423 0 0 1-9.707 6.628H0z"/>
    <path fill="url(#b)" d="M16.266 35.498 27.353 7.13A10.423 10.423 0 0 1 37.061.502h6.685L32.658 28.87a10.423 10.423 0 0 1-9.708 6.628h-6.684z"/>
    <path fill="url(#c)" d="M32.533 35.498 43.62 7.13A10.423 10.423 0 0 1 53.328.502h6.684L48.925 28.87a10.423 10.423 0 0 1-9.708 6.628h-6.684z"/>
    <defs>
      <linearGradient id="a" x1="60.013" x2="0" y1="-2.172" y2="31.732" gradientUnits="userSpaceOnUse">
        <stop stop-color="#FF5CAA"/>
        <stop offset="1" stop-color="#FF4E62"/>
      </linearGradient>
      <linearGradient id="b" x1="60.013" x2="0" y1="-2.172" y2="31.732" gradientUnits="userSpaceOnUse">
        <stop stop-color="#FF5CAA"/>
        <stop offset="1" stop-color="#FF4E62"/>
      </linearGradient>
      <linearGradient id="c" x1="60.013" x2="0" y1="-2.172" y2="31.732" gradientUnits="userSpaceOnUse">
        <stop stop-color="#FF5CAA"/>
        <stop offset="1" stop-color="#FF4E62"/>
      </linearGradient>
    </defs>
  </g>
</svg>
