<svg xmlns="http://www.w3.org/2000/svg" viewBox="-7.98 -7.98 415.22 414.97">
  <path fill="#18a497" d="M64.97 0h269.47c35.91 0 64.94 29.01 64.94 64.92v269.4c0 35.91-29.03 64.92-64.94 64.92H106.39l-.76-172.02h-.09V226c0-65.22 51.79-117.93 115.86-117.93 38.44 0 69.52 31.63 69.52 70.76 0 39.13-31.08 70.76-69.52 70.76-12.8 0-23.17-10.55-23.17-23.59 0-13.03 10.37-23.59 23.17-23.59 12.8 0 23.17-10.55 23.17-23.59 0-13.03-10.37-23.59-23.17-23.59-38.44 0-69.52 31.63-69.52 70.76 0 39.13 31.08 70.76 69.52 70.76 64.07 0 115.86-52.71 115.86-117.93S285.47 60.89 221.4 60.89c-89.7 0-162.23 73.79-162.23 165.1v1.43h-.39l.76 171.59C26.16 396.27 0 368.39 0 334.32V64.92C0 29.01 29.03 0 64.94 0z"/>
</svg>
