<svg xmlns="http://www.w3.org/2000/svg" viewBox="-0.96 -0.96 43.92 49.85">
  <g fill="none">
    <path fill="#3787F2" fill-rule="evenodd" d="m21.01 0 .014 11.57 10.51-6.052L22.568.342c-.445-.224-1-.338-1.558-.342Z" clip-rule="evenodd"/>
    <path fill="#0F6EED" fill-rule="evenodd" d="m31.512 5.5-10.485 6.07 10.494 6.076V5.506l-.01-.006Z" clip-rule="evenodd"/>
    <path fill="#0E65DA" fill-rule="evenodd" d="m38.568 9.58 1.827 1.058c.433.278.826.72 1.116 1.223l-9.997 5.787V5.508l7.054 4.072Z" clip-rule="evenodd"/>
    <path fill="#0D5DC9" fill-rule="evenodd" d="m31.497 17.624 10.009-5.763c.308.535.5 1.137.5 1.679V23.69l-10.509-6.067Z" clip-rule="evenodd"/>
    <path fill="#0E65DA" fill-rule="evenodd" d="m31.497 29.777.014-12.127 10.496 6.043v.016l-10.51 6.068zm-10.47 6.074 10.51 6.05.015-12.126-10.525 6.076z" clip-rule="evenodd"/>
    <path fill="#3787F2" fill-rule="evenodd" d="m21.027 35.847 10.495-6.076-10.495-6.076v12.152Z" clip-rule="evenodd"/>
    <path fill="#0D5DC9" fill-rule="evenodd" d="m21.027 35.854.014 11.57c.537-.002 1.072-.105 1.508-.31l6.833-3.934 2.167-1.251-10.522-6.075Z" clip-rule="evenodd"/>
    <path fill="#0E65DA" fill-rule="evenodd" d="m21.042 35.854-.013 11.57c-.534-.001-1.066-.104-1.503-.308l-7.16-4.122-1.844-1.065 10.52-6.075Z" clip-rule="evenodd"/>
    <path fill="#0F6EED" fill-rule="evenodd" d="M21.027 35.85 10.52 41.903l-.014-12.127 10.522 6.076Z" clip-rule="evenodd"/>
    <path fill="#0F6EED" fill-rule="evenodd" d="m1.665 36.818 8.83 5.084.014-12.127L.494 35.557c.302.524.716.985 1.171 1.261Z" clip-rule="evenodd"/>
    <path fill="#217AF1" fill-rule="evenodd" d="m.495 35.553 9.986-5.781L0 23.703v10.177c0 .539.19 1.138.495 1.672Z" clip-rule="evenodd"/>
    <path fill="#0F6EED" fill-rule="evenodd" d="m10.51 29.777-.015-12.127L0 23.694v.015l10.51 6.069Z" clip-rule="evenodd"/>
    <path fill="#0C56B9" fill-rule="evenodd" d="M10.51 17.625.5 11.86c-.309.535-.5 1.138-.5 1.68v10.152l10.51-6.068Z" clip-rule="evenodd"/>
    <path fill="#0E65DA" fill-rule="evenodd" d="m3.645 9.46-2.04 1.182c-.432.277-.822.719-1.11 1.22l9.996 5.787V5.509L3.645 9.46Z" clip-rule="evenodd"/>
    <path fill="#217AF1" fill-rule="evenodd" d="M10.515 5.5 21 11.57l-10.495 6.076V5.506l.01-.006Z" clip-rule="evenodd"/>
    <path fill="#4D94F3" fill-rule="evenodd" d="m21.01 0-.013 11.57-10.51-6.052L19.465.337c.443-.221.993-.333 1.546-.337Z" clip-rule="evenodd"/>
    <path fill="#0F6EED" fill-rule="evenodd" d="m38.619 33.864 1.827 1.058c.434.277.826.72 1.116 1.223l-9.997 5.787v-12.14l7.054 4.072Z" clip-rule="evenodd"/>
    <path fill="#0C56B9" fill-rule="evenodd" d="m31.548 41.932 10.01-5.762c.308.535.5 1.138.5 1.679V48l-10.51-6.068Z" clip-rule="evenodd"/>
    <path fill="#fff" d="m21.036 41.166.005-5.32-.009-.005.01-.005v.01l4.864 2.801-.007.004-4.858-2.804.007 5.319h-.012Zm-4.88-2.498-.007-.004 4.892-2.817-4.886 2.82Zm4.885-2.821 7.154-4.141 3.335-1.926.01.006-10.499 6.06Zm-10.516-.43-.013-.007.007-5.617.006 5.624Zm21.034-.034.008-5.582.013.008v5.562l-.02.012ZM5.895 32.44l-.003-.007 4.597-2.662-4.861-2.815v-.008l4.867 2.81v.022l.004.002-4.604 2.658Zm25.635-2.66v-.005l.007-.004-.007-.004v-.01l4.868-2.81v.002L31.53 29.78Zm4.868-9.328L31.53 17.65v-.01l.006-.004 4.862 2.807v.01Zm-30.77 0v-.008l4.861-2.807.006.003v.01l-4.867 2.802Zm4.876-2.822v-.002.002Zm0-.018V12.01v5.6Zm12.243-5.047-1.734-1.001-1.304.752 1.29-.747.007-5.319h.014l.007 5.32 1.72.995Z"/>
    <path fill="#65A2F5" d="m21.016 11.57-.006-5.32c.325 0 .65.073.896.216l3.968 2.29-4.858 2.813Z"/>
    <path fill="#217AF1" d="m31.521 17.63-8.774-5.065-1.72-.995 4.858-2.813 5.636 3.254v5.602l-.013.007.013.008v.003Z"/>
    <path fill="#3787F2" d="M31.523 17.643v-.004l-.009-.005v-.003l.015.008-.006.004Zm-.009-.027v-5.602l3.972 2.293c.244.141.466.383.63.659l-4.602 2.65Z"/>
    <path fill="#217AF1" d="m36.387 20.445-4.862-2.807-.014-.009-.014-.007.014-.008 4.6-2.65c.17.288.276.615.276.907v4.574Z"/>
    <path fill="#3787F2" d="M31.532 29.758V17.65l4.867 2.802v6.496l-4.867 2.81Z"/>
    <path fill="#4D94F3" d="m25.891 38.654-4.864-2.8 10.499-6.062.026.015-.007 5.583-5.654 3.264Z"/>
    <path fill="#D22229" d="M21.027 35.846v-.01l7.154-4.13-7.154 4.14Zm10.489-6.071v-.009l.006.005-.006.004Z"/>
    <path fill="#0C56B9" d="m21.034 41.173-.007-5.319 4.857 2.805-3.982 2.299c-.24.139-.553.21-.869.215Z"/>
    <path fill="#217AF1" d="M21.007 41.173c-.328 0-.655-.072-.904-.215l-3.954-2.283 4.886-2.82-.005 5.319h-.023Z"/>
    <path fill="#3787F2" d="m16.135 38.671-5.623-3.247-.007-5.623 10.494 6.058.02-.011.008.005-4.892 2.818Z"/>
    <path fill="#4D94F3" d="m10.5 35.411-3.98-2.298c-.247-.143-.472-.39-.637-.671l4.604-2.659.02.011-.007 5.617Z"/>
    <path fill="#65A2F5" d="M5.892 32.438c-.163-.282-.264-.6-.264-.886v-4.59l4.861 2.814-4.597 2.662Z"/>
    <path fill="#4D94F3" d="m10.495 29.759-4.867-2.81v-6.496l4.867-2.803V29.76Z"/>
    <path fill="#0F6EED" d="M5.628 20.449v-4.575c0-.288.102-.608.267-.893l4.595 2.66-4.862 2.808Zm4.876-2.816v-.016.016Z"/>
    <path fill="#3787F2" d="m10.483 17.644-.005-.004-4.595-2.66c.164-.283.39-.53.637-.673l3.972-2.293v5.62l-.009.005v.005Z"/>
    <path fill="#0F6EED" d="M10.505 17.632v-5.62l5.623-3.247L21 11.57l-1.291.748-9.204 5.314Z"/>
    <path fill="#7FB2F7" d="m20.987 11.57-4.872-2.806 3.982-2.298c.247-.143.571-.215.897-.216l-.007 5.32Z"/>
    <path fill="#65A2F5" d="M31.565 35.372V29.81l4.559 2.614c-.165.29-.393.544-.645.69l-3.914 2.26Z"/>
  </g>
</svg>
