<svg xmlns="http://www.w3.org/2000/svg" viewBox="0.03 2.03 24.25 24.5">
  <g fill="none">
    <path fill="#FF2A4E" d="M13.65 9.003c-.468 0-.893-.182-1.222-.514L9.475 5.513c-.33-.322-.51-.76-.51-1.232 0-.47.18-.9.51-1.231.33-.332.765-.514 1.221-.514.468 0 .893.182 1.222.514l2.953 2.977c.68.685.68 1.788 0 2.473a1.711 1.711 0 0 1-1.222.503z"/>
    <path fill="#7CD300" d="M13.65 26.092c-.468 0-.893-.182-1.222-.514L9.475 22.6a1.742 1.742 0 0 1 0-2.463c.33-.332.765-.514 1.221-.514.468 0 .893.182 1.222.514l2.953 2.977a1.742 1.742 0 0 1 0 2.463 1.678 1.678 0 0 1-1.222.514z"/>
    <path fill="#509BEE" d="M19.172 17.547c-.467 0-.892-.182-1.221-.514a1.741 1.741 0 0 1 0-2.462l2.953-2.977a1.712 1.712 0 0 1 1.221-.514c.467 0 .892.182 1.221.514a1.741 1.741 0 0 1 0 2.463l-2.952 2.976a1.678 1.678 0 0 1-1.222.514z"/>
    <path fill="#FFC800" d="M2.231 17.547c-.467 0-.892-.182-1.221-.514a1.755 1.755 0 0 1 0-2.473l2.953-2.977a1.715 1.715 0 0 1 1.221-.513c.467 0 .892.182 1.221.514.68.685.68 1.788 0 2.473l-2.952 2.976c-.33.332-.765.514-1.222.514z"/>
    <path fill="#7F79FF" d="M18.163 12.119a1.739 1.739 0 0 1-1.731-1.745V6.165c0-.964.775-1.746 1.731-1.746.956 0 1.731.782 1.731 1.746v4.208c0 .963-.775 1.745-1.73 1.745z"/>
    <path fill="#D7F010" d="M6.182 24.207a1.739 1.739 0 0 1-1.73-1.745v-4.208c0-.964.774-1.745 1.73-1.745s1.732.781 1.732 1.745v4.208c0 .953-.776 1.745-1.732 1.745z"/>
    <path fill="#2FA036" d="M16.081 22.098a1.739 1.739 0 0 1-1.73-1.745c0-.964.774-1.746 1.73-1.746h4.175c.955 0 1.73.782 1.73 1.745 0 .964-.775 1.746-1.73 1.746H16.08z"/>
    <path fill="#FF6E00" d="M4.1 10.02a1.739 1.739 0 0 1-1.73-1.745c0-.964.775-1.745 1.73-1.745h4.175c.956 0 1.731.781 1.731 1.745 0 .964-.775 1.745-1.731 1.745H4.1z"/>
  </g>
</svg>
