<svg xmlns="http://www.w3.org/2000/svg" viewBox="-0.99 -0.99 51.28 46.97">
  <g fill="none">
    <path fill="#EF4357" d="M12.698 37.788c1.24 0 2.43-.487 3.307-1.355a4.593 4.593 0 0 0 .001-6.549 4.68 4.68 0 0 0-1.518-1.004 4.713 4.713 0 0 0-1.79-.35c-1.24 0-2.429.487-3.305 1.355a4.607 4.607 0 0 0-1.37 3.274 4.611 4.611 0 0 0 1.37 3.272 4.702 4.702 0 0 0 3.305 1.358zm23.799-3.969a4.714 4.714 0 0 0 1.79-.351 4.678 4.678 0 0 0 1.518-1.004 4.59 4.59 0 0 0-.001-6.55 4.701 4.701 0 0 0-6.611.003 4.611 4.611 0 0 0-1.37 3.272c0 1.228.492 2.406 1.368 3.274a4.697 4.697 0 0 0 3.306 1.356z"/>
    <path fill="#231F20" d="M1.19 45.024a1.193 1.193 0 0 1-.43-.078 1.185 1.185 0 0 1-.392-.245 1.173 1.173 0 0 1-.267-.377 1.163 1.163 0 0 1-.1-.449 1.162 1.162 0 0 1 .081-.453c.028-.078 1.148-3.258 1.665-14.033.28-5.86.288-8.435-.19-14.19-.461-5.509.292-8.748 2.221-9.635 2.706-1.23 5.16.754 7.534 2.677 2.62 2.121 5.326 4.297 8.955 3.774 2.473-.368 3.38-2.661 4.481-6.119.86-2.692 1.744-5.47 4.34-5.86 1.222-.176 2.567.293 3.995 1.399 6.856 5.31 14.915 24.125 16.272 37.99.015.154 0 .309-.046.457a1.17 1.17 0 0 1-.218.403 1.182 1.182 0 0 1-.358.29 1.192 1.192 0 0 1-1.309-.13 1.168 1.168 0 0 1-.424-.793C45.607 25.396 37.383 7.737 31.616 3.28c-.872-.672-1.65-1.004-2.198-.922-1.14.168-1.767 2.145-2.437 4.243-1.01 3.172-2.265 7.118-6.383 7.731-4.666.696-8.075-2.062-10.808-4.297-2.284-1.848-3.751-2.95-5.05-2.344-.548.25-1.266 2.453-.86 7.31.49 5.887.478 8.513.194 14.49-.548 11.405-1.767 14.632-1.818 14.765a1.19 1.19 0 0 1-1.065.77z"/>
    <path fill="#231F20" d="M6.703 35.89a.604.604 0 0 1-.545-.356.581.581 0 0 1-.052-.227.58.58 0 0 1 .041-.229.585.585 0 0 1 .128-.195.593.593 0 0 1 .195-.13l4.65-1.977-4.883-.985a.59.59 0 0 1-.213-.087.584.584 0 0 1-.162-.161.579.579 0 0 1-.087-.211.577.577 0 0 1 0-.228.579.579 0 0 1 .088-.212.585.585 0 0 1 .163-.162.59.59 0 0 1 .213-.088.592.592 0 0 1 .23 0l6.742 1.36a.592.592 0 0 1 .474.512.59.59 0 0 1-.355.602l-6.395 2.723a.546.546 0 0 1-.232.05zm35.793-5.712h-.032l-6.946-.371a.592.592 0 0 1-.54-.41.577.577 0 0 1 .025-.364.584.584 0 0 1 .238-.277L41.1 25.18a.6.6 0 0 1 .446-.069.6.6 0 0 1 .367.26.59.59 0 0 1-.194.81l-4.244 2.586 5.053.27a.587.587 0 0 1 .56.617.598.598 0 0 1-.592.523zm-18.5 4.028a4.4 4.4 0 0 1-2.712-.791 4.33 4.33 0 0 1-1.656-2.268.774.774 0 0 1 .053-.585.786.786 0 0 1 .448-.384.796.796 0 0 1 .603.032c.189.09.334.25.403.444.517 1.563 1.878 2.243 3.736 1.91 1.858-.331 2.852-1.46 2.816-3.101a.78.78 0 0 1 .231-.553.793.793 0 0 1 1.116 0 .777.777 0 0 1 .231.553c.051 2.414-1.526 4.204-4.114 4.669a6.574 6.574 0 0 1-1.156.074zm-13.204-6.958a.84.84 0 0 1-.173 0 .789.789 0 0 1-.493-.345.775.775 0 0 1-.103-.59c.395-1.675 2.552-4.273 5.223-4.687 2.67-.414 5.396 1.562 5.846 3.082a.774.774 0 0 1 .027.304.775.775 0 0 1-.093.29.782.782 0 0 1-.198.234.792.792 0 0 1-.273.141.796.796 0 0 1-.599-.063.783.783 0 0 1-.379-.464c-.22-.75-2.154-2.286-4.083-1.981-1.928.305-3.66 2.297-3.944 3.516a.793.793 0 0 1-.757.563zm15.38-2.602a.7.7 0 0 1-.217-.032.793.793 0 0 1-.274-.138.783.783 0 0 1-.2-.232.776.776 0 0 1-.095-.29.774.774 0 0 1 .025-.305c.394-1.418 1.826-3.934 4.58-4.368 2.504-.39 5.388 1.27 6.197 2.966a.775.775 0 0 1 .071.298.776.776 0 0 1-.05.303.781.781 0 0 1-.164.26.789.789 0 0 1-.252.178.796.796 0 0 1-.302.072.797.797 0 0 1-.307-.049.793.793 0 0 1-.264-.163.783.783 0 0 1-.18-.25c-.49-1.028-2.655-2.388-4.52-2.091-1.973.309-3.026 2.262-3.31 3.255a.794.794 0 0 1-.738.586z"/>
    <path fill="#B4BCF6" fill-rule="evenodd" d="M30.436 27.443a6.291 6.291 0 0 1-4.419-1.816 6.171 6.171 0 0 1-1.833-4.333 4.414 4.414 0 0 0-.71-.059 4.31 4.31 0 0 0-2.211.61 6.15 6.15 0 0 1 .345 2.02 6.17 6.17 0 0 1-1.833 4.376 6.29 6.29 0 0 1-4.42 1.816 6.29 6.29 0 0 1-4.418-1.816 6.176 6.176 0 0 1-1.804-3.783l-1.233.223a.918.918 0 0 1-.177.027.992.992 0 0 1-.63-.229.975.975 0 0 1-.337-.576.964.964 0 0 1 .006-.38.968.968 0 0 1 .152-.348.978.978 0 0 1 .275-.265.987.987 0 0 1 .356-.14l1.725-.314a6.184 6.184 0 0 1 1.668-2.966 6.29 6.29 0 0 1 4.418-1.814 6.29 6.29 0 0 1 4.973 2.444 6.298 6.298 0 0 1 4.156-.762 6.19 6.19 0 0 1 1.532-2.484 6.291 6.291 0 0 1 4.419-1.816 6.291 6.291 0 0 1 4.419 1.816c.265.263.504.546.715.847a1.06 1.06 0 0 1 .05-.01l1.487-.27a.997.997 0 0 1 .734.157.969.969 0 0 1 .252 1.354.987.987 0 0 1-.631.407l-1.018.185c.16.55.243 1.124.244 1.707a6.17 6.17 0 0 1-1.833 4.376 6.291 6.291 0 0 1-4.42 1.816zm0-10.431c-1.135 0-2.223.448-3.025 1.242s-1.254 1.873-1.255 2.997a4.227 4.227 0 0 0 1.256 2.995 4.31 4.31 0 0 0 3.024 1.244 4.309 4.309 0 0 0 3.024-1.244 4.227 4.227 0 0 0 1.256-2.995 4.223 4.223 0 0 0-1.255-2.997 4.305 4.305 0 0 0-3.025-1.242zm-15.08 2.613a4.31 4.31 0 0 0-3.024 1.244 4.226 4.226 0 0 0-1.256 2.995 4.226 4.226 0 0 0 1.256 2.996 4.31 4.31 0 0 0 3.024 1.243c1.134-.002 2.222-.449 3.024-1.243s1.254-1.872 1.256-2.996a4.227 4.227 0 0 0-1.257-2.992 4.309 4.309 0 0 0-3.023-1.243v-.004z" clip-rule="evenodd"/>
  </g>
</svg>
