<svg xmlns="http://www.w3.org/2000/svg" viewBox="0.03 -0.03 50.38 48.44">
  <style>
    .s0{fill:#0c56cf}
  </style>
  <g id="Layer">
    <path fill-rule="evenodd" d="M36.7 3.5c17.3 8.6 16.9 33.2-.5 41.3-8.1 3.7-15 3.6-22.8-.3-4.4-2.3-6.6-4.2-8.8-7.8C1.1 31.1 0 22.5 2 16.5c1.6-5 7.5-11.4 12.5-13.6C20.6.1 30.3.4 36.7 3.5zm-15.9 8.2c-3.4 1.4-3.8 1.9-3.8 5.2 0 3.3-.4 3.9-3.2 5.2-2.9 1.2-3.3 1.9-3.6 5.9-.2 4.3-.1 4.6 3.8 6.8 4 2.2 4 2.2 7.7.4 3.6-1.9 3.7-1.9 6.9 0s3.3 1.9 7.3-.2c4-2 4.1-2.2 4.1-6.9 0-4.8-.1-5-3.5-6.1-3.2-1.1-3.5-1.5-3.5-5.1 0-3.5-.3-4-3.6-5.4-4.3-1.8-3.9-1.8-8.6.2z" class="s0"/>
    <path id="top top" d="M25 13.1c.8 0 2.3.4 3.3.8 1.7.6 1.6.8-.7 1.9-2 .9-3.2.9-5.2 0-2.3-1.1-2.4-1.3-.7-1.9 1-.4 2.5-.8 3.3-.8z" class="s0"/>
    <path id="top front" d="M30.8 18.8c.4 1.5-1.4 3.2-3.5 3.2-2.2 0-1.4-2.6 1-3.7 1.7-.8 2.3-.7 2.5.5z" class="s0"/>
    <path id="left top" d="M18 23.1c1.2-.2 5 1.2 5 1.9 0 1.2-4.3 2-6.8 1.3-2.6-.6-2.9-2-.4-2.6.9-.3 1.9-.5 2.2-.6z" class="s0"/>
    <path id="front top" d="M36.8 24.6c1 .8-4.4 2.5-6.4 2-2.8-.7-3.2-2.3-.6-2.9 1.5-.4 6.2.2 7 .9z" class="s0"/>
    <path id="left left" d="M24 29.5c0 1.2-2.8 3.5-4.4 3.5-1.4 0-.5-3 1.2-3.9 2.4-1.4 3.2-1.3 3.2.4z" class="s0"/>
    <path id="front front" d="M38 29.5c0 1.2-2.8 3.5-4.4 3.5-1.2 0-.6-3.8.7-4.3 2.3-1 3.7-.7 3.7.8z" class="s0"/>
  </g>
</svg>
