<svg xmlns="http://www.w3.org/2000/svg" viewBox="27.7 112.32 139.36 139.24">
  <style>
    .st1{fill:#fff}
  </style>
  <path fill="#50B84D" d="M129.3 226.9v-17.4l9.6 8.7c-2.9 3.3-6.1 6.2-9.6 8.7zm-40.2 9.6 28.1-26.6v23.5c-6.2 2.4-12.9 3.7-19.9 3.7-2.7 0-5.5-.2-8.2-.6zm-46.5-48.6 29.5 26.5 29.7-27.9 15.3-14.5v21.4l-41.6 39.3c-17.8-7.8-30.8-24.7-32.9-44.8zm23.4-51v17.5l-9.8-8.8c2.9-3.3 6.2-6.2 9.8-8.7zm0 55.8-22.8-20.5c1.1-6 3.1-11.6 6-16.7l16.8 15v22.2zm39.8-65-12.4 11.7L78 153.9v-23.4c6-2.3 12.5-3.5 19.3-3.5 2.9 0 5.7.3 8.5.7zm45.7 64.1c-1 5.9-3 11.4-5.8 16.5l-16.5-15v-21.7l22.3 20.2zm.6-15.8-28.9-26.2-29.5 27.9-15.5 14.6v-21.8l23.6-22.3 17.6-16.6c17.5 7.7 30.5 24.4 32.7 44.4zm-7.3-41.4C132.1 122 115.3 115 97.4 115s-34.8 7-47.4 19.6c-12.7 12.7-19.6 29.5-19.6 47.4s7 34.8 19.6 47.4C62.7 242.1 79.5 249 97.4 249s34.8-7 47.4-19.6c12.7-12.7 19.6-29.5 19.6-47.4 0-17.8-6.9-34.7-19.6-47.4z"/>
</svg>
