<svg xmlns="http://www.w3.org/2000/svg" viewBox="0 0 865 349" width="865" height="349">
	<style>
		tspan { white-space:pre }
		.shp0 { fill: #ffffff } 
	</style>
	<path id="Daim " class="shp0" d="M32.36 294.09C35.36 294.09 38.37 294.37 41.37 294.91C44.65 295.19 47.38 295.46 49.56 295.73C51.75 296 54.75 296.82 58.57 298.19C62.4 299.28 64.99 300.1 66.36 300.65C67.99 300.92 71 302.01 75.37 303.92C80.01 305.56 82.74 306.65 83.56 307.2C84.38 307.47 87.38 308.7 92.57 310.89C98.03 313.07 100.9 314.3 101.17 314.57C114.55 299.28 125.88 275.52 135.17 243.3C94.48 240.57 65.26 224.19 47.51 194.15C37.96 177.49 33.18 159.47 33.18 140.08C33.18 128.89 34.68 117.28 37.68 105.27C46.97 71.13 66.22 44.37 95.44 24.99C120.83 8.33 150.6 0 184.73 0C208.76 0 230.2 3.96 249.04 11.88C268.15 19.8 283.31 30.45 294.5 43.83C305.97 56.93 315.12 72.09 321.95 89.29C329.05 107.32 332.6 126.02 332.6 145.41C332.6 164.8 330.96 183.77 327.68 202.34C324.68 220.64 318.67 238.39 309.66 255.59C300.92 272.79 290.82 288.09 279.35 301.47C267.88 314.57 253.95 325.09 237.57 333C221.46 340.92 203.16 344.88 182.68 344.88C162.2 344.88 139.67 340.1 115.1 330.55C99.53 342.29 80.69 348.16 58.57 348.16C29.35 348.16 10.79 341.33 2.87 327.68C0.96 324.13 0 320.31 0 316.21C0 311.84 2.73 307.06 8.19 301.88C13.65 296.69 21.71 294.09 32.36 294.09ZM123.69 323.72C144.17 330.82 163.15 334.37 180.62 334.37C198.1 334.37 213.39 330.68 226.5 323.31C239.61 315.94 250.94 305.97 260.5 293.41C270.05 280.85 278.65 266.51 286.3 250.4C293.95 234.02 299.27 216.95 302.27 199.2C305.28 181.18 306.78 163.29 306.78 145.54C306.78 127.52 303.91 110.45 298.18 94.34C292.72 77.96 285.21 63.49 275.65 50.92C266.09 38.36 253.12 28.4 236.74 21.02C220.35 13.65 201.65 9.96 180.62 9.96C135.84 9.96 101.57 25.8 77.81 57.48C61.16 79.32 52.83 103.9 52.83 131.21C52.83 168.34 65.53 196.47 90.92 215.58C104.57 225.69 120.28 231.69 138.02 233.61C141.3 220.5 145.12 202.89 149.49 180.77C154.14 158.38 158.1 140.08 161.37 125.88C164.65 111.41 168.74 96.66 173.66 81.64C183.76 51.33 198.92 36.18 219.13 36.18C222.95 36.18 225.54 37.95 226.91 41.5L227.32 43.14C209.84 43.14 197.69 57.34 190.86 85.74C187.31 99.67 184.45 113.87 182.26 128.34C180.35 142.81 177.89 160.42 174.89 181.18C172.16 201.66 169.15 219 165.88 233.2C184.99 230.47 200.97 223.23 213.8 211.49C226.91 199.75 236.06 185.55 241.24 168.89C241.52 167.52 242.34 166.7 243.7 166.43C245.34 166.16 246.57 166.43 247.39 167.25C248.48 168.07 248.89 169.3 248.62 170.94C242.61 189.51 232.37 205.34 217.9 218.45C203.42 231.56 185.27 239.61 163.42 242.62C154.68 279.48 141.44 306.51 123.69 323.72ZM12.28 319.21C12.28 324.4 15.96 328.77 23.34 332.32C30.71 335.6 41.22 337.23 54.88 337.23C68.53 337.23 81.5 332.18 93.79 322.08C66.48 310.34 46.82 304.47 34.81 304.47C23.06 304.47 15.83 307.88 13.1 314.71C12.55 316.34 12.28 317.85 12.28 319.21ZM388.7 331.91C367.13 331.91 356.34 315.66 356.34 283.17C356.34 264.33 361.26 243.71 371.09 221.32C384.74 191.01 402.08 171.21 423.11 161.93C430.48 158.92 437.85 157.42 445.22 157.42C452.87 157.42 458.88 159.6 463.25 163.97C467.62 168.34 469.8 173.26 469.8 178.72C469.8 181.18 468.44 182.41 465.7 182.41C463.25 182.13 462.02 180.77 462.02 178.31C462.02 175.85 460.65 173.67 457.92 171.76C455.46 169.57 451.78 168.48 446.86 168.48C429.66 168.48 414.1 183.91 400.17 214.76C387.06 243.44 380.51 270.61 380.51 296.27C380.51 312.11 383.92 320.03 390.75 320.03C397.85 320.03 406.31 314.16 416.14 302.42C426.25 290.4 435.53 276.48 444 260.64C462.29 227.33 473.08 205.89 476.35 196.33C479.63 186.77 483.18 182 487 182C493.83 182 497.24 187.73 497.24 199.2C497.24 202.75 496.83 206.85 496.02 211.49C487 255.18 482.09 280.44 481.27 287.26C480.72 294.09 480.45 299.01 480.45 302.01C480.45 315.12 483.59 321.67 489.87 321.67C496.97 321.67 506.94 312.25 519.77 293.41C532.61 274.57 543.67 255.72 552.95 236.88L566.31 209.77C567.27 205.81 568.28 201.74 569.33 197.56C570.43 192.92 571.25 189.37 571.79 186.91C572.61 184.45 573.43 181.31 574.25 177.49C575.07 173.39 575.89 169.71 576.71 166.43C578.07 160.7 580.53 157.83 584.08 157.83C588.99 157.83 592.54 161.38 594.73 168.48C595.82 171.76 596.37 175.72 596.37 180.36C596.37 185 595.82 189.91 594.73 195.1C593.64 200.02 591.86 207.39 589.4 217.22C586.95 227.05 585.03 235.11 583.67 241.39C582.3 247.67 580.8 255.31 579.16 264.33C576.16 279.34 574.66 292.72 574.66 304.47C574.66 315.94 577.8 321.67 584.08 321.67C591.18 321.67 601.15 312.25 613.98 293.41C626.81 274.57 637.87 255.72 647.16 236.88L660.49 209.82C662.32 199.53 664.29 188.48 666.41 176.67C667.23 170.94 669.69 168.07 673.78 168.07C678.7 168.07 682.38 171.62 684.84 178.72C686.21 182.54 686.89 186.77 686.89 191.42C686.89 195.79 686.34 200.56 685.25 205.75L679.11 236.88L681.56 236.88C705.59 182.82 728.8 155.78 751.2 155.78C758.84 155.78 764.85 158.51 769.22 163.97C773.86 169.43 776.18 175.99 776.18 183.63C776.18 197.83 774 215.58 769.63 236.88L771.27 236.88C794.48 186.37 817.28 161.11 839.67 161.11C847.04 161.11 853.05 163.84 857.69 169.3C862.33 174.76 864.66 182 864.66 191.01C864.66 200.02 861.11 219.13 854.01 248.35C847.18 277.57 843.77 298.19 843.77 310.2C843.77 327.95 847.04 336.82 853.6 336.82C853.6 338.74 852.37 340.65 849.91 342.56C847.45 344.47 844.58 345.43 841.31 345.43C825.47 345.43 817.55 333 817.55 308.15C817.55 292.59 821.51 270.2 829.43 240.98C837.35 211.49 841.31 192.65 841.31 184.45C841.31 175.99 838.58 171.76 833.12 171.76C823.01 171.76 811.13 184.04 797.48 208.62C784.1 232.92 773.31 256.27 765.12 278.66C757.2 301.05 752.56 315.53 751.2 322.08C749.83 328.36 747.37 331.5 743.82 331.5C736.18 331.5 732.35 325.63 732.35 313.89C732.35 309.52 734.68 294.09 739.32 267.6C748.33 219 752.83 190.05 752.83 180.77C752.83 171.21 750.1 166.43 744.64 166.43C737.27 166.43 728.67 174.08 718.84 189.37C709.01 204.39 700.13 221.86 692.21 241.8C675.01 283.85 664.91 311.02 661.9 323.31C660.81 328.77 658.49 331.5 654.94 331.5C647.29 331.5 643.47 325.63 643.47 313.89C643.47 309.55 647.11 286.42 654.4 244.49C653.16 246.86 651.84 249.37 650.43 252.04C642.79 266.24 635.42 278.8 628.32 289.72C621.49 300.64 613.71 310.61 604.97 319.62C596.5 328.36 589.13 332.73 582.85 332.73C562.64 332.73 552.54 319.62 552.54 293.41C552.54 282.47 554.27 267.72 557.74 249.16C557.25 250.1 556.74 251.06 556.23 252.04C548.58 266.24 541.21 278.8 534.11 289.72C527.28 300.64 519.5 310.61 510.76 319.62C502.3 328.36 494.92 332.73 488.64 332.73C468.44 332.73 458.33 317.98 458.33 288.49C458.33 278.66 459.42 267.19 461.61 254.09L458.74 254.09C430.89 305.97 407.54 331.91 388.7 331.91ZM610.29 86.15C616.57 86.15 619.71 90.38 619.71 98.85C619.71 107.31 615.62 114.14 607.43 119.33C603.33 122.06 599.78 123.42 596.78 123.42C592.41 123.42 589.81 122.06 588.99 119.33L588.58 118.1C591.04 118.1 592.82 115.5 593.91 110.32C595 104.85 596.64 99.53 598.82 94.34C601.28 88.88 605.11 86.15 610.29 86.15Z" />
</svg>